<svg width="406" height="306" viewBox="0 0 406 306" fill="none" xmlns="http://www.w3.org/2000/svg">
<path opacity="0.3" d="M56.1397 113.841C56.1397 113.841 0.669954 239.133 146.718 240.889C292.767 242.645 359.533 223.4 360.193 159.689C360.853 95.9773 308.256 36.407 216.571 35.7472C124.886 35.0875 75.3029 59.0617 56.1397 113.841Z" fill="#E3E5EA"/>
<path d="M271.705 70.176H180.081L181.34 160.003H307.109V105.579C307.109 96.1897 303.379 87.1847 296.739 80.5454C290.1 73.906 281.095 70.176 271.705 70.176Z" fill="#4767CD"/>
<path d="M180.081 70.176C189.471 70.176 198.476 73.906 205.115 80.5454C211.755 87.1847 215.485 96.1897 215.485 105.579V160.003H144.678V105.579C144.678 96.1897 148.408 87.1847 155.048 80.5454C161.687 73.906 170.692 70.176 180.081 70.176Z" fill="#141D39"/>
<path d="M180.081 249.831C170.692 249.831 161.687 246.101 155.047 239.462C148.408 232.822 144.678 223.817 144.678 214.428V160.004H215.484V214.428C215.484 223.817 211.754 232.822 205.115 239.462C198.476 246.101 189.471 249.831 180.081 249.831Z" fill="#4767CD"/>
<path opacity="0.09" d="M180.081 249.831C170.692 249.831 161.687 246.101 155.047 239.462C148.408 232.822 144.678 223.817 144.678 214.428V160.004H215.484V214.428C215.484 223.817 211.754 232.822 205.115 239.462C198.476 246.101 189.471 249.831 180.081 249.831Z" fill="black"/>
<path d="M246.158 30.3677C246.696 30.3677 247.212 30.5816 247.593 30.9623C247.974 31.343 248.188 31.8593 248.188 32.3977V107.152H244.036V32.4383C244.036 31.8999 244.25 31.3836 244.631 31.0029C245.012 30.6222 245.528 30.4083 246.066 30.4083L246.158 30.3677Z" fill="#4767CD"/>
<path opacity="0.44" d="M246.158 30.3677C246.696 30.3677 247.212 30.5816 247.593 30.9623C247.974 31.343 248.188 31.8593 248.188 32.3977V107.152H244.036V32.4383C244.036 31.8999 244.25 31.3836 244.631 31.0029C245.012 30.6222 245.528 30.4083 246.066 30.4083L246.158 30.3677Z" fill="white"/>
<path d="M246.28 115.09C250.641 115.09 254.176 111.554 254.176 107.193C254.176 102.832 250.641 99.2963 246.28 99.2963C241.918 99.2963 238.383 102.832 238.383 107.193C238.383 111.554 241.918 115.09 246.28 115.09Z" fill="#FFAA50"/>
<path d="M248.229 32.4383H267.666V40.0914L248.229 45.0141V32.4383Z" fill="#FFAA50"/>
<path d="M263.088 160.003H228.883V172.437H263.088V160.003Z" fill="#141D39"/>
<path d="M254.166 172.437H237.52V271.379H254.166V172.437Z" fill="#4767CD"/>
<path opacity="0.44" d="M254.166 172.437H237.52V271.379H254.166V172.437Z" fill="white"/>
<path opacity="0.09" d="M237.52 172.437V205.597L254.166 194.991V172.437H237.52Z" fill="black"/>
<mask id="mask0_6_625" style="mask-type:luminance" maskUnits="userSpaceOnUse" x="73" y="54" width="143" height="107">
<path d="M182.517 70.2572L180.954 68.755L171.535 54.7581H88.4573L73.5774 160.003H215.485V105.579C215.485 86.01 201.985 71.3433 182.517 70.2572Z" fill="white"/>
</mask>
<g mask="url(#mask0_6_625)">
<path d="M177.262 107.118L91.5812 93.8539L84.0935 142.221L169.774 155.485L177.262 107.118Z" fill="white"/>
<path d="M91.5732 93.8559L131.026 134.03L177.26 107.122L91.5732 93.8559Z" fill="#FFAA50"/>
<path opacity="0.09" d="M124.368 98.931L128.479 149.092L146.83 152.29L141.653 101.316L124.368 98.931Z" fill="black"/>
<path d="M224.993 79.6731L140.48 60.317L129.554 108.025L214.067 127.381L224.993 79.6731Z" fill="white"/>
<path d="M140.466 60.3203L176.945 103.214L224.975 79.6865L140.466 60.3203Z" fill="#FFAA50"/>
<path d="M224.975 111.06H138.273V160.003H224.975V111.06Z" fill="white"/>
<path d="M138.273 111.06L183.41 144.728L224.975 111.06H138.273Z" fill="#FFAA50"/>
<path opacity="0.09" d="M180.091 70.176L168.053 160.003H225.269C225.269 160.003 261.982 67.1919 180.091 70.176Z" fill="black"/>
</g>
<path d="M188.793 123.893L107.916 155.133L125.551 200.789L206.429 169.548L188.793 123.893Z" fill="white"/>
<path d="M107.905 155.152L162.146 170.285L188.79 123.91L107.905 155.152Z" fill="#FFAA50"/>
<path opacity="0.09" d="M172.022 130.386L173.778 182.171L206.421 169.565L188.79 123.91L172.022 130.386Z" fill="black"/>
</svg>
