<svg width="406" height="306" viewBox="0 0 406 306" fill="none" xmlns="http://www.w3.org/2000/svg">
<path d="M169.353 108.594C169.353 108.594 130.529 113.121 116.674 123.727C102.819 134.334 105.509 150.584 150.646 142.048C195.783 133.512 169.353 108.594 169.353 108.594Z" fill="#4767CD"/>
<path opacity="0.08" d="M169.353 108.594C169.353 108.594 130.529 113.121 116.674 123.727C102.819 134.334 105.509 150.584 150.646 142.048C195.783 133.512 169.353 108.594 169.353 108.594Z" fill="black"/>
<path d="M153.986 81.95C155.341 81.7846 156.657 81.3826 157.873 80.7625C159.903 79.7475 164.268 78.7325 164.176 82.9955C164.115 85.7055 159.903 82.4981 159.619 86.1419C159.335 89.7858 159.852 94.3939 152.331 93.2469C145.47 92.1507 147.378 82.7925 153.986 81.95Z" fill="#F4A28C"/>
<path d="M274.872 104.706C303.596 104.706 326.881 84.8158 326.881 60.2797C326.881 35.7436 303.596 15.8532 274.872 15.8532C246.149 15.8532 222.864 35.7436 222.864 60.2797C222.864 84.8158 246.149 104.706 274.872 104.706Z" fill="#141D39"/>
<path opacity="0.45" d="M198.26 283.803C259.02 283.803 308.276 276.809 308.276 268.182C308.276 259.555 259.02 252.561 198.26 252.561C137.5 252.561 88.2441 259.555 88.2441 268.182C88.2441 276.809 137.5 283.803 198.26 283.803Z" fill="#E3E5EA"/>
<path opacity="0.58" d="M243.874 250.562C243.874 250.562 233.582 247.801 231.308 238.26C231.308 238.26 247.224 234.971 247.741 251.455L243.874 250.562Z" fill="#4767CD"/>
<path opacity="0.73" d="M245.133 249.537C245.133 249.537 237.906 238.219 244.178 227.572C244.178 227.572 256.358 235.215 250.999 249.537H245.133Z" fill="#4767CD"/>
<path d="M246.98 249.537C246.98 249.537 250.725 237.529 262.205 235.215C262.205 235.215 264.387 242.99 254.836 249.537H246.98Z" fill="#4767CD"/>
<path d="M239.53 249.303L241.672 263.544H254.796L256.663 249.303H239.53Z" fill="#141D39"/>
<path d="M175.027 259.829C175.027 259.829 173.575 264.112 169.738 264.498C165.902 264.883 164.948 268.669 168.429 269.573C171.911 270.476 180.741 265.888 180.741 265.888L180.365 259.798L175.027 259.829Z" fill="#4767CD"/>
<path d="M215.383 255.048C215.383 255.048 216.51 259.433 213.505 261.859C210.501 264.285 211.79 267.949 215.2 266.832C218.611 265.716 223.493 257.007 223.493 257.007L220.164 252.561L215.383 255.048Z" fill="#4767CD"/>
<path d="M182.375 79.2095C182.375 79.2095 186.07 85.6954 186.993 90.7196C187.081 91.2062 187.072 91.7054 186.966 92.1884C186.86 92.6714 186.66 93.1288 186.377 93.5343C186.095 93.9398 185.734 94.2854 185.317 94.5514C184.901 94.8174 184.435 94.9984 183.948 95.0841C181.421 95.5104 177.858 95.3581 175.463 92.1203L170.723 87.1265C169.879 86.0251 169.396 84.6893 169.342 83.3026C169.287 81.9159 169.663 80.5463 170.418 79.3821C172.986 74.845 180.325 75.1394 182.375 79.2095Z" fill="#F4A28C"/>
<path d="M172.459 88.2227L172.56 112.694L186.039 111.669L180.69 94.7187L172.459 88.2227Z" fill="#F4A28C"/>
<path d="M184.497 83.4218L187.542 85.1676C187.722 85.2644 187.873 85.4061 187.983 85.5789C188.092 85.7517 188.155 85.9498 188.165 86.1539C188.175 86.3581 188.132 86.5614 188.041 86.7442C187.95 86.9271 187.812 87.0832 187.643 87.1976L185.278 88.8825L184.497 83.4218Z" fill="#F4A28C"/>
<path opacity="0.31" d="M180.843 95.1958C179.191 95.0319 177.616 94.4214 176.285 93.4297C176.285 93.4297 175.818 98.7686 182.375 100.047L180.843 95.1958Z" fill="#CE8172"/>
<path d="M276.77 32.55C282.19 32.8646 286.443 34.58 289.529 37.625C290.985 39.0363 292.111 40.7512 292.829 42.6477C293.547 44.5442 293.837 46.5755 293.68 48.5971C293.655 51.2073 292.956 53.7666 291.65 56.0269C290.371 57.9757 289.722 59.1734 287.753 60.5132C286.274 61.5952 284.689 62.5236 283.023 63.2842C281.906 63.8627 281.155 64.1875 280.861 64.3905C277.816 66.0247 276.1 67.5877 275.938 70.4094C275.836 72.2161 275.227 72.6932 273.492 72.5917L270.599 72.4192C268.863 72.3177 268.315 71.7797 268.417 69.973C268.782 63.8221 271.462 61.0106 276.06 58.3005C275.989 58.3005 278.993 56.6664 279.105 56.5953C280.042 56.0497 280.929 55.4212 281.754 54.7175C282.552 53.9418 283.235 53.0567 283.784 52.0887C284.262 50.9232 284.557 49.6905 284.657 48.4347C284.911 44.0296 281.825 40.873 276.05 40.538C270.477 40.2132 267.392 42.2736 265.098 46.7092C264.194 48.4753 263.606 48.7392 261.9 48.049L258.5 46.6178C256.866 46.019 256.47 44.9025 257.16 43.4206C260.774 35.6254 267.31 32.0019 276.77 32.55ZM272.172 76.4487C275.644 76.6517 276.73 77.8799 276.527 81.341V82.0008C276.324 85.533 275.106 86.5581 271.634 86.3551H271.056C267.584 86.1521 266.498 85.0051 266.701 81.4628V80.8132C266.904 77.3419 268.122 76.2558 271.594 76.4588L272.172 76.4487Z" fill="#FFAA50"/>
<path d="M180.731 107.66H194.24C194.24 107.66 237.51 111.385 238.2 132.781C238.89 154.177 210.907 196.919 210.907 196.919H164.278C164.278 196.919 110.635 107.66 180.731 107.66Z" fill="#4767CD"/>
<path opacity="0.08" d="M207.963 127.523C207.963 127.523 198.199 141.449 202.279 152.289C206.36 163.13 208.176 180.496 176.732 163.678L172.164 149.102L159.883 144.88L154.94 164.987L163.405 167.86C165.351 168.49 166.973 169.858 167.921 171.67C168.87 173.482 169.071 175.594 168.48 177.553C167.353 181.004 164.572 184.414 158.056 185.074L164.318 196.878H210.947L217.129 186.82L234.12 149.498L207.963 127.523Z" fill="black"/>
<path d="M172.479 93.115C172.479 93.115 169.353 87.3904 165.618 84.8631C161.882 82.3357 164.937 74.2056 171.505 72.7541C176.417 71.6579 179.229 70.0441 179.269 67.2731C179.288 66.9791 179.385 66.6956 179.551 66.4525C179.718 66.2093 179.946 66.0156 180.214 65.8919C180.481 65.7681 180.777 65.7189 181.07 65.7494C181.363 65.7799 181.642 65.8891 181.878 66.0653C184.131 67.7603 186.435 70.5313 185.319 74.368C184.881 75.7596 184.09 77.0139 183.022 78.0084C181.955 79.0029 180.648 79.7035 179.229 80.0418L174.803 81.2192C174.803 81.2192 180.731 89.2073 172.479 93.115Z" fill="#141D39"/>
<path d="M177.828 88.3242C177.828 88.3242 176.58 85.736 174.712 86.8423C172.844 87.9487 174.621 91.694 177.452 90.8211L177.828 88.3242Z" fill="#F4A28C"/>
<path d="M233.511 72.6628L207.842 92.5973L240.23 85.7055L233.511 72.6628Z" fill="#141D39"/>
<path d="M208.187 133.989C204.614 120.936 220.275 111.223 230.517 120.134C235.399 124.397 239.56 129.878 240.819 136.689C244.442 156.258 256.044 173.29 238.281 184.881C220.519 196.472 178.478 170.752 178.478 170.752L184.263 160.247C184.263 160.247 205.304 168.58 218.357 167.849C227.36 167.352 213.231 152.421 208.187 133.989Z" fill="#4767CD"/>
<path d="M181.301 145.743L168.615 142.714L163.728 163.179L176.414 166.209L181.301 145.743Z" fill="#FFAA50"/>
<path opacity="0.3" d="M208.187 133.989C204.614 120.936 220.275 111.223 230.517 120.134C235.399 124.397 239.56 129.878 240.819 136.689C244.442 156.258 256.044 173.29 238.281 184.881C220.519 196.472 178.478 170.752 178.478 170.752L184.263 160.247C184.263 160.247 205.304 168.58 218.357 167.849C227.36 167.352 213.231 152.421 208.187 133.989Z" fill="white"/>
<path d="M183.492 161.567C183.015 159.569 182.069 157.715 180.731 156.157C178.457 153.436 177.686 152.229 174.55 152.29C171.413 152.35 171.099 163.871 179.757 168.347L183.492 161.567Z" fill="#F4A28C"/>
<path d="M210.907 196.919C210.907 196.919 201.569 235.692 220.265 251.993L213.678 258.154C213.678 258.154 189.44 244.086 186.06 205.435L210.907 196.919Z" fill="#141D39"/>
<path d="M148.434 86.3348L152.331 93.2267L123.83 138.14C119.425 145.073 108.453 142.2 108.351 133.989C108.351 130.203 109.498 125.646 112.878 120.266C125.119 100.717 148.434 86.3348 148.434 86.3348Z" fill="#4767CD"/>
<path d="M145.53 73.1204L145.261 75.1325L155.834 76.5471L156.103 74.535L145.53 73.1204Z" fill="#B7BBC5"/>
<path d="M153.721 60.2902L152.159 61.5877L158.978 69.7918L160.539 68.4943L153.721 60.2902Z" fill="#B7BBC5"/>
<path d="M167.082 56.9878L166.097 67.6098L168.118 67.7973L169.103 57.1753L167.082 56.9878Z" fill="#B7BBC5"/>
<path d="M164.278 196.919C164.278 196.919 154.696 233.114 173.585 259.798L181.218 259.433C181.218 259.433 170.155 223.329 186.588 210.124L210.948 196.929L164.278 196.919Z" fill="#141D39"/>
</svg>
