<svg width="24" height="24" viewBox="0 0 24 24" fill="none" xmlns="http://www.w3.org/2000/svg">
<mask id="mask0_13_1227" style="mask-type:alpha" maskUnits="userSpaceOnUse" x="3" y="2" width="19" height="19">
<path d="M7.95324 19.0081C9.26596 19.7916 10.7669 20.2035 12.2956 20.2C14.1711 20.201 15.9942 19.5817 17.481 18.4385C18.9678 17.2954 20.0348 15.6926 20.5158 13.8799C20.9967 12.0672 20.8647 10.1463 20.1402 8.4164C19.4157 6.68654 18.1394 5.24486 16.5102 4.31592C14.881 3.38699 12.9902 3.02297 11.1326 3.28057C9.27488 3.53817 7.55456 4.40292 6.23956 5.74011C4.92456 7.07731 4.08872 8.81187 3.86226 10.6736C3.63579 12.5353 4.03141 14.4197 4.98748 16.0331C5.03714 16.12 5.05042 16.223 5.02444 16.3196L4.14672 19.3869C4.1299 19.4496 4.12988 19.5156 4.14667 19.5783C4.16345 19.641 4.19645 19.6982 4.24234 19.7441C4.28822 19.7899 4.34539 19.8229 4.40807 19.8397C4.47076 19.8565 4.53676 19.8565 4.59944 19.8397L7.66683 18.962H7.76846C7.83275 18.9632 7.89593 18.979 7.95324 19.0081Z" stroke="#2E2E38" stroke-width="1.5" stroke-linecap="round" stroke-linejoin="round"/>
</mask>
<g mask="url(#mask0_13_1227)">
<rect width="24" height="24" fill="#4767CD"/>
</g>
</svg>
